# xmcd
#
# Track frame offsets:
#	150
#	22725
#	34437
#	46921
#	70098
#	81728
#	94099
#	106265
#	115461
#	127088
#	139630
#	151205
#	161089
#	172206
#	181790
#	193666
#	204263
#	215043
#	224970
#	238675
#	252750
#	267802
#	279855
#	289970
#	300429
#
# Disc length: 4125 seconds
#
# Revision: 0
# Processed by: cddbd v1.5.2PL0 Copyright (c) Steve Scherf et al.
# Submitted via: EasyCDDAExtractor 2010.6.0.0
#
DISCID=78101b19
DTITLE=Various Artist - Hits Of The 60's Vol 5
DYEAR=1900
DGENRE=Pop
TTITLE0=Mary Hopkins - Those Were The Days
TTITLE1=The Four Pennies - Juliet
TTITLE2=Crispian St Peters   - You Were On My Mind
TTITLE3=Peter Sarstedt  - Where Do You Go To (My Lovely)
TTITLE4=The Lvy League - Funny How Love Can Be
TTITLE5=Dave Berry  - Crying Game, The
TTITLE6=Duane Eddy  - It's Called Kommotion
TTITLE7=Wanye Fontana  - A Groovy Kind Of Love
TTITLE8=The Applejacks  - Tell Me When
TTITLE9=Joe Dolan   - Make Me An Island
TTITLE10=Helen Shapiro   - Walkin' Back To Happiness
TTITLE11=The Troggs  - With A Girl Like You
TTITLE12=The Merseybeats  - I Think Of You
TTITLE13=Mike Pender's Searchers   - Needles and Pins
TTITLE14=Brian Poole   - Candy Man
TTITLE15=Billie Davis   - Tell Him
TTITLE16=The Swinging Blue Jeans  - Good Golly Miss Molly
TTITLE17=Jim Crawford   - I Love How You Love Me
TTITLE18=Billy Fury   - A Thousand Stars
TTITLE19=Nashville Teens   - Google Eye
TTITLE20=Gary Puckett and The Union Gap - Woman, Woman
TTITLE21=Freddie and The Dreamers  - I Understand
TTITLE22=Gerry and The Peacemakers  - I Like It
TTITLE23=Billy J Kramer  - Bad To Me
TTITLE24=The Fourmost  - A Little Loving
EXTD=
EXTT0=
EXTT1=
EXTT2=
EXTT3=
EXTT4=
EXTT5=
EXTT6=
EXTT7=
EXTT8=
EXTT9=
EXTT10=
EXTT11=
EXTT12=
EXTT13=
EXTT14=
EXTT15=
EXTT16=
EXTT17=
EXTT18=
EXTT19=
EXTT20=
EXTT21=
EXTT22=
EXTT23=
EXTT24=
PLAYORDER=
